<svg xmlns="http://www.w3.org/2000/svg" xmlns:xlink="http://www.w3.org/1999/xlink" width="500" zoomAndPan="magnify" viewBox="0 0 375 374.999991" height="500" preserveAspectRatio="xMidYMid meet" version="1.0"><defs><clipPath id="5c5ca748e1"><path d="M 31 134 L 153 134 L 153 329.109375 L 31 329.109375 Z M 31 134 " clip-rule="nonzero"/></clipPath><clipPath id="bd8941f9a5"><path d="M 11.121094 133 L 58 133 L 58 170 L 11.121094 170 Z M 11.121094 133 " clip-rule="nonzero"/></clipPath><clipPath id="39aa3db23a"><path d="M 317 187 L 363.621094 187 L 363.621094 224 L 317 224 Z M 317 187 " clip-rule="nonzero"/></clipPath></defs><path fill="#fab12f" d="M 110.007812 286.214844 C 107.167969 286.214844 105.117188 283.335938 106.160156 280.621094 L 121.660156 240.082031 C 98.367188 221.78125 85.078125 195.160156 85.078125 166.574219 C 85.078125 113.660156 131.019531 70.613281 187.496094 70.613281 C 243.972656 70.613281 289.914062 113.660156 289.914062 166.574219 C 289.914062 219.488281 243.96875 262.535156 187.492188 262.535156 C 177.972656 262.535156 168.550781 261.308594 159.464844 258.894531 C 157.460938 259.148438 113.324219 286.214844 110.007812 286.214844 Z M 110.007812 286.214844 " fill-opacity="1" fill-rule="evenodd"/><path fill="#ffffff" d="M 184.527344 131.832031 L 133.464844 131.832031 C 128.039062 131.832031 128.039062 123.589844 133.464844 123.589844 L 184.527344 123.589844 C 189.953125 123.589844 189.953125 131.832031 184.527344 131.832031 Z M 184.527344 131.832031 " fill-opacity="1" fill-rule="evenodd"/><path fill="#ffffff" d="M 136.109375 173.023438 C 131.8125 173.023438 130.367188 167.171875 134.269531 165.214844 C 134.613281 165.039062 156.71875 153.640625 167.652344 126.925781 C 169.699219 121.921875 177.324219 125.046875 175.277344 130.046875 C 163.546875 158.710938 139.292969 173.023438 136.109375 173.023438 Z M 136.109375 173.023438 " fill-opacity="1" fill-rule="evenodd"/><path fill="#ffffff" d="M 176.902344 167.195312 C 176.722656 167.195312 176.539062 167.179688 176.351562 167.15625 C 157.746094 164.679688 142.738281 143.375 142.109375 142.46875 C 139.019531 138.019531 145.765625 133.316406 148.871094 137.761719 C 149.003906 137.953125 162.445312 156.992188 177.4375 158.988281 C 182.488281 159.65625 181.976562 167.191406 176.902344 167.191406 Z M 176.902344 167.195312 " fill-opacity="1" fill-rule="evenodd"/><path fill="#ffffff" d="M 158.996094 131.832031 C 153.199219 131.832031 154.875 123.101562 154.875 114.898438 C 154.875 109.476562 163.113281 109.476562 163.113281 114.898438 C 163.113281 123.105469 164.789062 131.832031 158.996094 131.832031 Z M 158.996094 131.832031 " fill-opacity="1" fill-rule="evenodd"/><path fill="#ffffff" d="M 174.398438 220.25 C 171.53125 220.25 169.46875 217.222656 170.601562 214.523438 L 216.546875 105.511719 C 218.648438 100.539062 226.238281 103.730469 224.140625 108.710938 L 178.195312 217.730469 C 177.535156 219.300781 176.007812 220.25 174.398438 220.25 Z M 174.398438 220.25 " fill-opacity="1" fill-rule="evenodd"/><path fill="#ffffff" d="M 241.53125 216.167969 C 239.925781 216.167969 238.398438 215.222656 237.734375 213.648438 L 220.125 171.992188 L 202.515625 213.648438 C 200.410156 218.628906 192.824219 215.417969 194.925781 210.441406 L 216.328125 159.8125 C 217.742188 156.472656 222.5 156.46875 223.914062 159.8125 L 245.316406 210.441406 C 246.449219 213.125 244.402344 216.167969 241.527344 216.167969 Z M 241.53125 216.167969 " fill-opacity="1" fill-rule="evenodd"/><path fill="#ffffff" d="M 234.875 200.433594 L 205.371094 200.433594 C 199.945312 200.433594 199.949219 192.191406 205.371094 192.191406 L 234.875 192.191406 C 240.300781 192.191406 240.300781 200.433594 234.875 200.433594 Z M 234.875 200.433594 " fill-opacity="1" fill-rule="evenodd"/><g clip-path="url(#5c5ca748e1)"><path fill="#575555" d="M 148.128906 329.464844 C 147.777344 329.464844 147.417969 329.421875 147.058594 329.324219 C 63.429688 306.757812 14.261719 221.320312 36.585938 137.976562 C 37.988281 132.738281 45.949219 134.871094 44.546875 140.109375 C 23.378906 219.207031 70.285156 300.285156 149.191406 321.367188 C 153.824219 322.605469 152.894531 329.464844 148.128906 329.464844 Z M 148.128906 329.464844 " fill-opacity="1" fill-rule="evenodd"/></g><g clip-path="url(#bd8941f9a5)"><path fill="#fab12f" d="M 53.164062 169.503906 C 50.625 169.503906 12.925781 158.394531 12.480469 157.773438 C 11.160156 155.925781 11.59375 153.351562 13.445312 152.03125 L 38.167969 134.402344 C 40.269531 132.90625 43.226562 133.6875 44.308594 136.046875 L 56.90625 163.671875 C 58.15625 166.414062 56.105469 169.503906 53.164062 169.503906 Z M 53.164062 169.503906 " fill-opacity="1" fill-rule="evenodd"/></g><path fill="#575555" d="M 334.433594 221.910156 C 331.742188 221.910156 329.746094 219.351562 330.449219 216.71875 C 351.636719 137.714844 304.789062 56.632812 225.796875 35.464844 C 220.5625 34.0625 222.683594 26.109375 227.933594 27.5 C 311.011719 49.539062 360.753906 135.214844 338.40625 218.855469 C 337.917969 220.691406 336.253906 221.910156 334.433594 221.910156 Z M 334.433594 221.910156 " fill-opacity="1" fill-rule="evenodd"/><g clip-path="url(#39aa3db23a)"><path fill="#fab12f" d="M 334.429688 223.40625 L 330.679688 220.996094 L 318.082031 193.371094 C 317.136719 191.296875 318.050781 188.855469 320.121094 187.910156 C 320.363281 187.800781 362.359375 199.0625 362.511719 199.273438 C 363.828125 201.125 363.402344 203.699219 361.546875 205.019531 C 357.761719 207.714844 337.257812 223.40625 334.429688 223.40625 Z M 334.429688 223.40625 " fill-opacity="1" fill-rule="evenodd"/></g></svg>